# xmcd
#
# Track frame offsets: 
#        150
#        18353
#        46772
#
# Disc length: 1112 seconds
#
# Revision: 0
# Processed by: cddbd v1.5.2PL0 Copyright (c) Steve Scherf et al.
# Submitted via: ExactAudioCopy v0.99pb4
#
DISCID=17045603
DTITLE=Hearts of Black Science - Gold and Dust
DYEAR=2009
DGENRE=Alternative
TTITLE0=Gold and Dust (Radio Edit)
TTITLE1=Gold and Dust (Album Version)
TTITLE2=Gold and Dust (Pretorium Remix)
EXTD=
EXTT0=
EXTT1=
EXTT2=
PLAYORDER=
